<?xml version="1.0" encoding="utf-8"?>
<svg version="1.1" id="Layer_1" xmlns="http://www.w3.org/2000/svg" x="0px" y="0px"
	 viewBox="0 0 140.3 165.6" style="enable-background:new 0 0 140.3 165.6;" xml:space="preserve">
<style type="text/css">
	.st0{fill:none;stroke:#009998;stroke-width:2;stroke-linecap:round;stroke-linejoin:round;}
</style>
<g id="Layer_2_1_">
	<g id="Layer_2-2">
		<path class="st0" d="M131.9,157c0,0-8.7-1-29.7,4.7S30.6,163,30.6,163"/>
		<path class="st0" d="M128.6,150.7c0,0,46.7-131.3-54.3-109.3c0,0-1-35-5-40c-3.3-4.2-7.3,29.1-8.6,40.5c0,0.4-0.4,0.6-0.8,0.6
			c-0.3,0-0.5-0.2-0.6-0.5c-2.1-7.9-7.3-26.2-13-33c-0.4-0.5-1.1-0.5-1.6-0.1c-0.3,0.2-0.4,0.5-0.4,0.9c0.3,8.4,1.5,33.6,4.2,39.9"
			/>
		<path class="st0" d="M46.6,53.7c0,0-36.1,6.7-44.3,18.1c-2.1,3-1.4,7.1,1.6,9.2c1.1,0.8,2.5,1.2,3.9,1.2
			c12.1-0.2,43.8,1.3,36.5,20.8c-9,24-24.7,27.2-16.3,57.8"/>
		<path class="st0" d="M43.8,65.2c0.4-1.7,1.7-3,3.4-3.5c3.4-0.8,9.1,1,8.4,6.3c-1.3,9.7-12.7,5.7-13.3,0"/>
	</g>
</g>
</svg>
